<svg xmlns="http://www.w3.org/2000/svg" viewBox="0 0 153.9 88.97"><defs><style>.cls-1,.cls-3{fill:#fff;}.cls-2{fill:#c90;}.cls-3{font-size:18.89px;font-family:CorbelLight, Corbel;}.cls-4{letter-spacing:-0.05em;}.cls-5{letter-spacing:-0.01em;}.cls-6{letter-spacing:-0.02em;}.cls-7{letter-spacing:0em;}</style></defs><g id="Слой_2" data-name="Слой 2"><g id="OBJECTS"><path class="cls-1" d="M94.08,5.29h0a.57.57,0,0,0-.82,0l-6.44,6.44a.65.65,0,0,1-.81.09.61.61,0,0,1-.07-.93L92.4,4.43a.59.59,0,0,0,0-.82l0,0a.57.57,0,0,0-.82,0L85.1,10a.64.64,0,0,1-.81.1.62.62,0,0,1-.08-.93l6.47-6.46a.59.59,0,0,0,0-.82l0,0a.59.59,0,0,0-.83,0L83.34,8.32a.64.64,0,0,1-.81.1.62.62,0,0,1-.08-.93L89,1a.57.57,0,0,0,0-.82h0a.57.57,0,0,0-.8,0C86.32,1.88,79,8.83,78.77,9.59c-.42,1.49.25,2.32-.27,3.88S76,17.19,73.56,19.33c-4.72,4.11-11,8-11.52,9.44a2.53,2.53,0,0,0,3.43,3.44c1.43-.52,5.34-6.8,9.44-11.52,2.14-2.46,4.3-4.42,5.86-4.94s2.39.15,3.88-.27c.77-.22,7.71-7.55,9.44-9.38A.59.59,0,0,0,94.08,5.29Z"/><path class="cls-1" d="M60.18.89a.64.64,0,0,0-1.09.45,13.79,13.79,0,0,0,1.66,6c1.64,3.18,8.36,10.3,10.11,11.06,1.59.69,1.58-.17,2.42,0,1.35.31,2.17,1.47,4.31,3.93,4.1,4.72,6.45,9.37,7.87,9.89a2.54,2.54,0,0,0,3.44-3.44c-.53-1.42-12.45-10.72-14.79-13.44C73.11,14.16,63.31,3.87,60.18.89Z"/><path class="cls-2" d="M5.26,64.19a.5.5,0,0,1-.4,0,.47.47,0,0,1-.22-.26L0,49.69a.38.38,0,0,1,.05-.34.51.51,0,0,1,.3-.24c2.57-.83,3.85-1.23,6.44-2a6,6,0,0,1,2.68-.21,4.22,4.22,0,0,1,2.09.93,3.62,3.62,0,0,1,1.16,1.87,4.35,4.35,0,0,1,.1,1.92,4,4,0,0,1-.73,1.65,4.86,4.86,0,0,1-1.39,1.23l-1.14.14a3.82,3.82,0,0,1,1.93-.07,3.62,3.62,0,0,1,1.76.92,4,4,0,0,1,1.12,2,9.85,9.85,0,0,0,.55,1.6,2.4,2.4,0,0,0,.5.74,1.56,1.56,0,0,0,.52.31.46.46,0,0,1,.26.16.42.42,0,0,1,.11.3.45.45,0,0,1-.09.25A.62.62,0,0,1,16,61a.44.44,0,0,1-.26,0,2.65,2.65,0,0,1-.78-.35,3,3,0,0,1-.81-.93,7.45,7.45,0,0,1-.78-2,3.43,3.43,0,0,0-.8-1.54,2.58,2.58,0,0,0-1.13-.7,3.6,3.6,0,0,0-1.26-.11,6.52,6.52,0,0,0-1.13.21c-2.3.68-3.44,1-5.73,1.76.06-.13.08-.19.13-.32C4.34,59.66,4.76,61,5.6,63.61a.41.41,0,0,1,0,.34A.46.46,0,0,1,5.26,64.19ZM3.06,56.5c2.43-.78,3.64-1.15,6.08-1.87a4.77,4.77,0,0,0,1.61-1,3.84,3.84,0,0,0,1-1.59,3.4,3.4,0,0,0,0-2,2.84,2.84,0,0,0-1.67-1.92A4.41,4.41,0,0,0,6.94,48c-2.36.69-3.54,1-5.88,1.81l.07-.19,2.25,7Z"/><path class="cls-2" d="M16.64,44.46c3.73-.93,5.6-1.36,9.34-2.14a.5.5,0,0,1,.38.06.39.39,0,0,1,.21.28.4.4,0,0,1-.08.35.57.57,0,0,1-.32.2c-3.62.75-5.42,1.16-9,2l.15-.43c.68,2.73,1,4.09,1.69,6.82l-.37-.24c3.09-.77,4.64-1.12,7.75-1.79a.51.51,0,0,1,.36.07A.37.37,0,0,1,27,50a.43.43,0,0,1-.07.35.55.55,0,0,1-.32.19c-3.07.66-4.6,1-7.66,1.77l.18-.3,1.72,7-.12-.09C24,58,25.69,57.66,29,57a.44.44,0,0,1,.35.06.44.44,0,0,1,.14.64.53.53,0,0,1-.31.19c-3.5.73-5.25,1.13-8.74,2a.51.51,0,0,1-.36-.05.45.45,0,0,1-.21-.28L16.26,45a.42.42,0,0,1,.07-.34A.49.49,0,0,1,16.64,44.46Z"/><path class="cls-2" d="M37.5,56.5a7.48,7.48,0,0,1-3.24,0,10.11,10.11,0,0,1-2.87-1.27l-.11-.1a.34.34,0,0,1-.09-.21.49.49,0,0,1,.09-.37.48.48,0,0,1,.33-.24.55.55,0,0,1,.44.12,6.73,6.73,0,0,0,2.49,1.15,7.07,7.07,0,0,0,2.71.07,6.09,6.09,0,0,0,2.08-.73,3.56,3.56,0,0,0,1.32-1.29,2.56,2.56,0,0,0,.3-1.68,2.69,2.69,0,0,0-1-1.74,5,5,0,0,0-1.85-.87,22.82,22.82,0,0,0-2.3-.46c-.63-.1-1.26-.22-1.88-.34A8.22,8.22,0,0,1,32.24,48a3.7,3.7,0,0,1-1.35-1,3.65,3.65,0,0,1-.76-1.71,3.31,3.31,0,0,1,.27-2.1A4.5,4.5,0,0,1,32,41.45a7.38,7.38,0,0,1,2.84-1.05,8.52,8.52,0,0,1,2.85,0,4.73,4.73,0,0,1,2.33,1.05,1,1,0,0,1,.32.43.43.43,0,0,1-.14.35.63.63,0,0,1-.38.21.42.42,0,0,1-.35-.08,4.33,4.33,0,0,0-1.22-.76,5.37,5.37,0,0,0-1.53-.38A6.36,6.36,0,0,0,35,41.3a6.66,6.66,0,0,0-2.15.74,3.86,3.86,0,0,0-1.4,1.31,2.53,2.53,0,0,0,.68,3.28,5.23,5.23,0,0,0,1.84.79c.71.17,1.45.33,2.18.44s1.29.2,1.93.33a7.17,7.17,0,0,1,1.78.6,3.83,3.83,0,0,1,1.37,1.12A4,4,0,0,1,42,51.82a3.28,3.28,0,0,1-.35,2A4.58,4.58,0,0,1,40.1,55.5,6.58,6.58,0,0,1,37.5,56.5Z"/><path class="cls-2" d="M43,40.25a.52.52,0,0,1-.37-.07.36.36,0,0,1-.19-.28.38.38,0,0,1,.11-.33.56.56,0,0,1,.33-.17c4.87-.67,7.32-.95,12.21-1.38a.59.59,0,0,1,.37.09.4.4,0,0,1,.17.3.35.35,0,0,1-.12.32.53.53,0,0,1-.34.15C50.25,39.31,47.82,39.58,43,40.25Zm7.76,14.14a.42.42,0,0,1-.35-.09.42.42,0,0,1-.17-.3L48.5,39.23l1-.11c.66,5.91,1,8.86,1.64,14.77a.41.41,0,0,1-.1.33A.46.46,0,0,1,50.72,54.39Z"/><path class="cls-2" d="M63.48,38.58c-2.23,5.89-3.26,8.85-5.19,14.79a.51.51,0,0,1-.15.23.49.49,0,0,1-.26.1.51.51,0,0,1-.36-.09.54.54,0,0,1-.16-.26.4.4,0,0,1,0-.22c2-6.2,3.15-9.28,5.52-15.43a.42.42,0,0,1,.17-.24.62.62,0,0,1,.29-.08.75.75,0,0,1,.33.06.43.43,0,0,1,.19.21c3,5.85,4.46,8.8,7.16,14.73a.48.48,0,0,1,0,.18.39.39,0,0,1-.13.32.53.53,0,0,1-.35.12.5.5,0,0,1-.3-.07.43.43,0,0,1-.19-.21c-2.64-5.76-4-8.62-7-14.3ZM59.55,48.64c.11-.38.17-.56.28-.93,3.13-.23,4.7-.31,7.84-.44.11.36.16.54.28.9C64.59,48.3,62.91,48.39,59.55,48.64Z"/><path class="cls-2" d="M86.31,37.23a.5.5,0,0,1,.36.15.42.42,0,0,1,.13.33c-.15,3.91-.23,5.86-.39,9.78a5.42,5.42,0,0,1-1,2.9,6.4,6.4,0,0,1-2.28,2,6.15,6.15,0,0,1-3.07.74,6.28,6.28,0,0,1-3.06-.82,6.44,6.44,0,0,1-2.23-2.11A5.35,5.35,0,0,1,74,47.32c0-3.92-.08-5.88-.13-9.79a.45.45,0,0,1,.14-.32.53.53,0,0,1,.39-.14.55.55,0,0,1,.38.13.42.42,0,0,1,.15.32c0,3.91.05,5.87.08,9.79a4.63,4.63,0,0,0,.72,2.47,5.39,5.39,0,0,0,7,1.86,5.35,5.35,0,0,0,1.92-1.74,4.58,4.58,0,0,0,.8-2.45c.13-3.91.2-5.87.34-9.78a.46.46,0,0,1,.15-.31A.52.52,0,0,1,86.31,37.23Z"/><path class="cls-2" d="M91.41,53.37a.46.46,0,0,1-.47-.49L91.84,38a.38.38,0,0,1,.17-.31.51.51,0,0,1,.36-.12c2.66.17,4,.27,6.65.51a5.75,5.75,0,0,1,2.55.77,4.21,4.21,0,0,1,1.59,1.63,3.7,3.7,0,0,1,.4,2.16,4.31,4.31,0,0,1-.61,1.83,4,4,0,0,1-1.27,1.27,4.87,4.87,0,0,1-1.73.64l-1.1-.29a3.8,3.8,0,0,1,1.8.64,3.51,3.51,0,0,1,1.29,1.5,4,4,0,0,1,.33,2.23,10,10,0,0,0-.08,1.69,2.32,2.32,0,0,0,.2.87,1.51,1.51,0,0,0,.36.48.58.58,0,0,1,.19.25.37.37,0,0,1,0,.31.39.39,0,0,1-.18.2.49.49,0,0,1-.23.08.45.45,0,0,1-.26-.07,2.87,2.87,0,0,1-.59-.61,3,3,0,0,1-.41-1.17,8.34,8.34,0,0,1,0-2.14,3.52,3.52,0,0,0-.17-1.72,2.55,2.55,0,0,0-.8-1.06A3.28,3.28,0,0,0,99.17,47a5.8,5.8,0,0,0-1.12-.22c-2.36-.2-3.54-.29-5.91-.44l.24-.26c-.18,2.76-.27,4.14-.44,6.89a.42.42,0,0,1-.17.31A.51.51,0,0,1,91.41,53.37Zm.76-8c2.51.16,3.77.25,6.28.48a4.64,4.64,0,0,0,1.85-.38,3.79,3.79,0,0,0,1.49-1.12,3.49,3.49,0,0,0,.72-1.86,2.85,2.85,0,0,0-.84-2.4,4.39,4.39,0,0,0-2.86-1.19c-2.42-.22-3.64-.31-6.07-.46l.13-.16c-.18,2.94-.28,4.41-.47,7.35Z"/><path class="cls-2" d="M114.09,41c-3.38,5.31-5,8-8.1,13.42a.52.52,0,0,1-.19.2.58.58,0,0,1-.61-.11.55.55,0,0,1-.11-.29.39.39,0,0,1,0-.22c3.26-5.65,5-8.45,8.55-14a.44.44,0,0,1,.22-.21.75.75,0,0,1,.61.12.37.37,0,0,1,.14.24c1.79,6.34,2.59,9.52,4,15.88a.54.54,0,0,1,0,.18.41.41,0,0,1-.2.29.57.57,0,0,1-.37,0,.56.56,0,0,1-.28-.13.37.37,0,0,1-.14-.24c-1.42-6.18-2.22-9.27-4-15.43Zm-5.9,9.05.46-.86c3.12.42,4.68.65,7.79,1.17,0,.38,0,.56.09.94C113.2,50.75,111.53,50.5,108.19,50.06Z"/><path class="cls-2" d="M137.35,44.48a.53.53,0,0,1,.32.21.42.42,0,0,1,0,.33c-1.45,5.79-2.18,8.69-3.64,14.48a.43.43,0,0,1-.24.32.53.53,0,0,1-.37,0,.76.76,0,0,1-.18-.09.49.49,0,0,1-.14-.18c-2.92-6.64-4.52-10-8-16.49l.38-.09-2.8,14a.32.32,0,0,1-.18.24.44.44,0,0,1-.34.05.41.41,0,0,1-.3-.17.35.35,0,0,1-.07-.29C123,51,123.56,48,124.72,42.14a.39.39,0,0,1,.21-.32.53.53,0,0,1,.32,0,.62.62,0,0,1,.19.07.33.33,0,0,1,.15.16c3.49,6.51,5.09,9.8,8,16.41l-.3.39c1.39-5.61,2.09-8.41,3.48-14a.4.4,0,0,1,.22-.26A.54.54,0,0,1,137.35,44.48Z"/><path class="cls-2" d="M141.42,46.42a.51.51,0,0,1-.32-.21.4.4,0,0,1,.16-.59.62.62,0,0,1,.38,0c4.78,1.29,7.16,2,11.89,3.52a.52.52,0,0,1,.3.22.39.39,0,0,1,0,.34.37.37,0,0,1-.24.26.59.59,0,0,1-.37,0C148.55,48.4,146.18,47.7,141.42,46.42Zm1.69,16.06a.46.46,0,0,1-.3-.22.48.48,0,0,1,0-.35c1.67-5.7,2.51-8.55,4.18-14.26l1,.29L143.7,62.19a.49.49,0,0,1-.23.26A.46.46,0,0,1,143.11,62.48Z"/><text class="cls-3" transform="translate(38.86 84.45) scale(1.33 1)">S<tspan class="cls-4" x="9.97" y="0">A</tspan><tspan class="cls-5" x="20.58" y="0">V</tspan><tspan class="cls-6" x="31.33" y="0">O</tspan><tspan class="cls-7" x="44.68" y="0">Y</tspan></text><path class="cls-2" d="M149.51,71a.53.53,0,0,0-.3-.25c-48.81-14.36-96.27-14.36-145.08,0a.5.5,0,0,0-.3.25.53.53,0,0,0,0,.39l.3.91a.49.49,0,0,0,.61.33c48.42-14.24,95.5-14.24,143.92,0l.14,0a.5.5,0,0,0,.47-.35l.3-.91A.53.53,0,0,0,149.51,71Z"/></g></g></svg>