<svg xmlns="http://www.w3.org/2000/svg" viewBox="0 0 97.64 79.53"><defs><style>.cls-1{fill:#fff;}</style></defs><g id="Слой_2" data-name="Слой 2"><g id="Capa_1" data-name="Capa 1"><path class="cls-1" d="M97.52,9.47A.48.48,0,0,0,97,9.34a38.8,38.8,0,0,1-9.16,2.78A20.38,20.38,0,0,0,95,2.08a.49.49,0,0,0-.16-.52.47.47,0,0,0-.55,0,39.39,39.39,0,0,1-12.18,4.7,20.32,20.32,0,0,0-34.57,18.1A56.05,56.05,0,0,1,7.59,3.81a.44.44,0,0,0-.41-.18.47.47,0,0,0-.38.24A20.35,20.35,0,0,0,11.69,30a19.44,19.44,0,0,1-7.08-2.29.49.49,0,0,0-.73.41v.26A20.39,20.39,0,0,0,18.16,47.77a19.4,19.4,0,0,1-6.75-.1.48.48,0,0,0-.45.16.47.47,0,0,0-.1.47,20.31,20.31,0,0,0,17.63,14A39,39,0,0,1,5.22,69.93a40.41,40.41,0,0,1-4.68-.28A.49.49,0,0,0,0,70a.48.48,0,0,0,.19.57,56.73,56.73,0,0,0,30.67,9c35.62,0,56.91-28.94,56.91-56.91,0-.78,0-1.56,0-2.33a40.32,40.32,0,0,0,9.81-10.24A.48.48,0,0,0,97.52,9.47Z"/></g></g></svg>