<svg xmlns="http://www.w3.org/2000/svg" viewBox="0 0 76.54 90.68"><defs><style>.cls-1{fill:#fff;}</style></defs><g id="Слой_2" data-name="Слой 2"><g id="Capa_1" data-name="Capa 1"><path class="cls-1" d="M75.22,45.91A9.67,9.67,0,0,0,67,38.39c-9.49-1.06-19.1-1.07-28.66-1.06s-19.18,0-28.67,1.06a9.66,9.66,0,0,0-8.27,7.52C0,51.7,0,58,0,64S0,76.3,1.33,82.09a9.69,9.69,0,0,0,8.28,7.53c9.49,1.06,19.09,1.06,28.66,1.06s19.17,0,28.66-1.06a9.67,9.67,0,0,0,8.27-7.53C76.54,76.3,76.54,70,76.54,64S76.55,51.7,75.22,45.91ZM21.83,50.4H16.29V79.84H11.15V50.4H5.71V45.58H21.83Zm14,29.44H31.18V77.05c-1.84,2.11-3.58,3.14-5.29,3.14a2.84,2.84,0,0,1-3-1.9,13.12,13.12,0,0,1-.4-3.79V54.31h4.62v18.8a15.28,15.28,0,0,0,0,1.8c.11.71.47,1.08,1.09,1.08.92,0,1.89-.72,2.92-2.17V54.31h4.63V79.84Zm17.57-7.66a20.87,20.87,0,0,1-.46,5.14,3.67,3.67,0,0,1-3.7,2.87c-1.65,0-3.23-.91-4.78-2.82v2.47H39.81V45.58h4.63V56.77C45.93,54.93,47.52,54,49.22,54a3.67,3.67,0,0,1,3.7,2.88A19.67,19.67,0,0,1,53.38,62Zm17.46-4.26H61.59v4.52c0,2.37.77,3.55,2.36,3.55A2,2,0,0,0,66,74.13a30.66,30.66,0,0,0,.1-3.13h4.72v.67c0,1.49-.06,2.52-.1,3a6.46,6.46,0,0,1-1.08,2.77,6.39,6.39,0,0,1-5.59,2.77,6.62,6.62,0,0,1-5.6-2.61c-1-1.28-1.49-3.29-1.49-6V62.63c0-2.73.45-4.72,1.43-6A6.58,6.58,0,0,1,64,54a6.43,6.43,0,0,1,5.46,2.62c1,1.29,1.43,3.28,1.43,6v5.29Z"/><path class="cls-1" d="M63.91,58.16c-1.55,0-2.32,1.18-2.32,3.54v2.37h4.62V61.7C66.21,59.34,65.44,58.16,63.91,58.16Z"/><path class="cls-1" d="M46.75,58.16a3.29,3.29,0,0,0-2.31,1.13V74.85A3.3,3.3,0,0,0,46.75,76c1.33,0,2-1.14,2-3.45V61.65C48.76,59.34,48.08,58.16,46.75,58.16Z"/><path class="cls-1" d="M49.33,35c1.7,0,3.48-1,5.34-3.16v2.81h4.67V8.82H54.67V28.54c-1,1.46-2,2.19-3,2.19-.63,0-1-.37-1.1-1.1a10.29,10.29,0,0,1-.06-1.82v-19H45.9v20.4a13,13,0,0,0,.42,3.84A2.87,2.87,0,0,0,49.33,35Z"/><path class="cls-1" d="M16.78,20.6v14H22v-14L28.2,0H23L19.42,13.6,15.75,0H10.29c1.09,3.21,2.23,6.43,3.32,9.65A83.46,83.46,0,0,1,16.78,20.6Z"/><path class="cls-1" d="M35.15,35a6.4,6.4,0,0,0,5.46-2.64c1-1.29,1.45-3.32,1.45-6.06v-9c0-2.76-.47-4.77-1.45-6.08a6.39,6.39,0,0,0-5.46-2.64,6.36,6.36,0,0,0-5.44,2.64c-1,1.31-1.46,3.32-1.46,6.08v9c0,2.74.47,4.77,1.46,6.06A6.36,6.36,0,0,0,35.15,35ZM32.92,16.29c0-2.38.72-3.57,2.23-3.57s2.23,1.19,2.23,3.57V27.15c0,2.38-.72,3.58-2.23,3.58s-2.23-1.2-2.23-3.58Z"/></g></g></svg>